<?xml version="1.0" encoding="UTF-8" standalone="no"?>
<!DOCTYPE svg PUBLIC "-//W3C//DTD SVG 1.1//EN"
 "http://www.w3.org/Graphics/SVG/1.1/DTD/svg11.dtd">
<!-- Generated by graphviz version 2.47.0 (20210316.0004)
 -->
<!-- Title: dbml Pages: 1 -->
<svg width="1417pt" height="4019pt"
 viewBox="0.00 0.00 1417.20 4019.49" xmlns="http://www.w3.org/2000/svg" xmlns:xlink="http://www.w3.org/1999/xlink">
<g id="graph0" class="graph" transform="scale(1 1) rotate(0) translate(4 4015.49)">
<title>dbml</title>
<!-- City -->
<g id="City" class="node">
<title>City</title>
<ellipse fill="none" stroke="black" stroke-width="0" cx="415.07" cy="-2005.53" rx="269.32" ry="214.92"/>
<polygon fill="#1d71b8" stroke="transparent" points="227.07,-2095.53 227.07,-2155.53 604.07,-2155.53 604.07,-2095.53 227.07,-2095.53"/>
<polygon fill="none" stroke="#29235c" points="227.07,-2095.53 227.07,-2155.53 604.07,-2155.53 604.07,-2095.53 227.07,-2095.53"/>
<text text-anchor="start" x="325.77" y="-2116.73" font-family="Helvetica,sans-Serif" font-weight="bold" font-size="32.00" fill="#ffffff"> &#160;&#160;&#160;&#160;&#160;&#160;City &#160;&#160;&#160;&#160;&#160;&#160;</text>
<polygon fill="#e7e2dd" stroke="transparent" points="227.07,-2035.53 227.07,-2095.53 604.07,-2095.53 604.07,-2035.53 227.07,-2035.53"/>
<polygon fill="none" stroke="#29235c" points="227.07,-2035.53 227.07,-2095.53 604.07,-2095.53 604.07,-2035.53 227.07,-2035.53"/>
<text text-anchor="start" x="238.07" y="-2056.73" font-family="Helvetica,sans-Serif" font-weight="bold" font-size="32.00" fill="#29235c">id</text>
<text text-anchor="start" x="262.96" y="-2056.73" font-family="Helvetica,sans-Serif" font-size="32.00" fill="#29235c"> &#160;&#160;&#160;</text>
<text text-anchor="start" x="450.85" y="-2056.73" font-family="Helvetica,sans-Serif" font-style="italic" font-size="32.00" fill="#29235c">INTEGER</text>
<polygon fill="#e7e2dd" stroke="transparent" points="227.07,-1975.53 227.07,-2035.53 604.07,-2035.53 604.07,-1975.53 227.07,-1975.53"/>
<polygon fill="none" stroke="#29235c" points="227.07,-1975.53 227.07,-2035.53 604.07,-2035.53 604.07,-1975.53 227.07,-1975.53"/>
<text text-anchor="start" x="238.07" y="-1995.73" font-family="Helvetica,sans-Serif" font-size="32.00" fill="#29235c">player_id &#160;&#160;&#160;</text>
<text text-anchor="start" x="450.85" y="-1996.73" font-family="Helvetica,sans-Serif" font-style="italic" font-size="32.00" fill="#29235c">INTEGER</text>
<polygon fill="#e7e2dd" stroke="transparent" points="227.07,-1915.53 227.07,-1975.53 604.07,-1975.53 604.07,-1915.53 227.07,-1915.53"/>
<polygon fill="none" stroke="#29235c" points="227.07,-1915.53 227.07,-1975.53 604.07,-1975.53 604.07,-1915.53 227.07,-1915.53"/>
<text text-anchor="start" x="238.07" y="-1935.73" font-family="Helvetica,sans-Serif" font-size="32.00" fill="#29235c">location &#160;&#160;&#160;</text>
<text text-anchor="start" x="436.65" y="-1936.73" font-family="Helvetica,sans-Serif" font-style="italic" font-size="32.00" fill="#29235c">VARCHAR</text>
<polygon fill="#e7e2dd" stroke="transparent" points="227.07,-1855.53 227.07,-1915.53 604.07,-1915.53 604.07,-1855.53 227.07,-1855.53"/>
<polygon fill="none" stroke="#29235c" points="227.07,-1855.53 227.07,-1915.53 604.07,-1915.53 604.07,-1855.53 227.07,-1855.53"/>
<text text-anchor="start" x="237.89" y="-1875.73" font-family="Helvetica,sans-Serif" font-size="32.00" fill="#29235c">player_cities &#160;&#160;&#160;</text>
<text text-anchor="start" x="450.96" y="-1876.73" font-family="Helvetica,sans-Serif" font-style="italic" font-size="32.00" fill="#29235c">INTEGER</text>
<polygon fill="none" stroke="#29235c" stroke-width="2" points="225.57,-1854.53 225.57,-2156.53 604.57,-2156.53 604.57,-1854.53 225.57,-1854.53"/>
</g>
<!-- Player -->
<g id="Player" class="node">
<title>Player</title>
<ellipse fill="none" stroke="black" stroke-width="0" cx="1137.67" cy="-1781.53" rx="210.02" ry="172.57"/>
<polygon fill="#1d71b8" stroke="transparent" points="991.67,-1841.53 991.67,-1901.53 1284.67,-1901.53 1284.67,-1841.53 991.67,-1841.53"/>
<polygon fill="none" stroke="#29235c" points="991.67,-1841.53 991.67,-1901.53 1284.67,-1901.53 1284.67,-1841.53 991.67,-1841.53"/>
<text text-anchor="start" x="1030.59" y="-1862.73" font-family="Helvetica,sans-Serif" font-weight="bold" font-size="32.00" fill="#ffffff"> &#160;&#160;&#160;&#160;&#160;&#160;Player &#160;&#160;&#160;&#160;&#160;&#160;</text>
<polygon fill="#e7e2dd" stroke="transparent" points="991.67,-1781.53 991.67,-1841.53 1284.67,-1841.53 1284.67,-1781.53 991.67,-1781.53"/>
<polygon fill="none" stroke="#29235c" points="991.67,-1781.53 991.67,-1841.53 1284.67,-1841.53 1284.67,-1781.53 991.67,-1781.53"/>
<text text-anchor="start" x="1002.67" y="-1802.73" font-family="Helvetica,sans-Serif" font-weight="bold" font-size="32.00" fill="#29235c">id</text>
<text text-anchor="start" x="1027.56" y="-1802.73" font-family="Helvetica,sans-Serif" font-size="32.00" fill="#29235c"> &#160;&#160;&#160;</text>
<text text-anchor="start" x="1131.45" y="-1802.73" font-family="Helvetica,sans-Serif" font-style="italic" font-size="32.00" fill="#29235c">INTEGER</text>
<polygon fill="#e7e2dd" stroke="transparent" points="991.67,-1721.53 991.67,-1781.53 1284.67,-1781.53 1284.67,-1721.53 991.67,-1721.53"/>
<polygon fill="none" stroke="#29235c" points="991.67,-1721.53 991.67,-1781.53 1284.67,-1781.53 1284.67,-1721.53 991.67,-1721.53"/>
<text text-anchor="start" x="1002.38" y="-1741.73" font-family="Helvetica,sans-Serif" font-size="32.00" fill="#29235c">name &#160;&#160;&#160;</text>
<text text-anchor="start" x="1117.46" y="-1742.73" font-family="Helvetica,sans-Serif" font-style="italic" font-size="32.00" fill="#29235c">VARCHAR</text>
<polygon fill="#e7e2dd" stroke="transparent" points="991.67,-1661.53 991.67,-1721.53 1284.67,-1721.53 1284.67,-1661.53 991.67,-1661.53"/>
<polygon fill="none" stroke="#29235c" points="991.67,-1661.53 991.67,-1721.53 1284.67,-1721.53 1284.67,-1661.53 991.67,-1661.53"/>
<text text-anchor="start" x="1002.67" y="-1681.73" font-family="Helvetica,sans-Serif" font-size="32.00" fill="#29235c">color &#160;&#160;&#160;</text>
<text text-anchor="start" x="1117.25" y="-1682.73" font-family="Helvetica,sans-Serif" font-style="italic" font-size="32.00" fill="#29235c">VARCHAR</text>
<polygon fill="none" stroke="#29235c" stroke-width="2" points="990.17,-1660.53 990.17,-1902.53 1285.17,-1902.53 1285.17,-1660.53 990.17,-1660.53"/>
</g>
<!-- City&#45;&gt;Player -->
<!-- City&#45;&gt;Player -->
<g id="edge2" class="edge">
<title>City:e&#45;&gt;Player:w</title>
<path fill="none" stroke="#29235c" stroke-width="3" d="M605.07,-2005.53C793.45,-2005.53 798.7,-1818.48 980.46,-1811.72"/>
<polygon fill="#29235c" stroke="#29235c" stroke-width="3" points="980.74,-1815.22 990.67,-1811.53 980.61,-1808.22 980.74,-1815.22"/>
<text text-anchor="middle" x="984.45" y="-1821.13" font-family="Helvetica,sans-Serif" font-size="32.00" fill="#29235c">*</text>
<text text-anchor="middle" x="596.18" y="-2015.13" font-family="Helvetica,sans-Serif" font-size="32.00" fill="#29235c">1</text>
</g>
<!-- DevelopmentCard -->
<g id="DevelopmentCard" class="node">
<title>DevelopmentCard</title>
<ellipse fill="none" stroke="black" stroke-width="0" cx="415.07" cy="-1557.53" rx="415.14" ry="214.92"/>
<polygon fill="#1d71b8" stroke="transparent" points="124.07,-1647.53 124.07,-1707.53 707.07,-1707.53 707.07,-1647.53 124.07,-1647.53"/>
<polygon fill="none" stroke="#29235c" points="124.07,-1647.53 124.07,-1707.53 707.07,-1707.53 707.07,-1647.53 124.07,-1647.53"/>
<text text-anchor="start" x="224.42" y="-1668.73" font-family="Helvetica,sans-Serif" font-weight="bold" font-size="32.00" fill="#ffffff"> &#160;&#160;&#160;&#160;&#160;&#160;DevelopmentCard &#160;&#160;&#160;&#160;&#160;&#160;</text>
<polygon fill="#e7e2dd" stroke="transparent" points="124.07,-1587.53 124.07,-1647.53 707.07,-1647.53 707.07,-1587.53 124.07,-1587.53"/>
<polygon fill="none" stroke="#29235c" points="124.07,-1587.53 124.07,-1647.53 707.07,-1647.53 707.07,-1587.53 124.07,-1587.53"/>
<text text-anchor="start" x="135.07" y="-1608.73" font-family="Helvetica,sans-Serif" font-weight="bold" font-size="32.00" fill="#29235c">id</text>
<text text-anchor="start" x="159.96" y="-1608.73" font-family="Helvetica,sans-Serif" font-size="32.00" fill="#29235c"> &#160;&#160;&#160;</text>
<text text-anchor="start" x="553.85" y="-1608.73" font-family="Helvetica,sans-Serif" font-style="italic" font-size="32.00" fill="#29235c">INTEGER</text>
<polygon fill="#e7e2dd" stroke="transparent" points="124.07,-1527.53 124.07,-1587.53 707.07,-1587.53 707.07,-1527.53 124.07,-1527.53"/>
<polygon fill="none" stroke="#29235c" points="124.07,-1527.53 124.07,-1587.53 707.07,-1587.53 707.07,-1527.53 124.07,-1527.53"/>
<text text-anchor="start" x="135.07" y="-1547.73" font-family="Helvetica,sans-Serif" font-size="32.00" fill="#29235c">player_id &#160;&#160;&#160;</text>
<text text-anchor="start" x="553.85" y="-1548.73" font-family="Helvetica,sans-Serif" font-style="italic" font-size="32.00" fill="#29235c">INTEGER</text>
<polygon fill="#e7e2dd" stroke="transparent" points="124.07,-1467.53 124.07,-1527.53 707.07,-1527.53 707.07,-1467.53 124.07,-1467.53"/>
<polygon fill="none" stroke="#29235c" points="124.07,-1467.53 124.07,-1527.53 707.07,-1527.53 707.07,-1467.53 124.07,-1467.53"/>
<text text-anchor="start" x="135.07" y="-1487.73" font-family="Helvetica,sans-Serif" font-size="32.00" fill="#29235c">Type &#160;&#160;&#160;</text>
<text text-anchor="start" x="539.65" y="-1488.73" font-family="Helvetica,sans-Serif" font-style="italic" font-size="32.00" fill="#29235c">VARCHAR</text>
<polygon fill="#e7e2dd" stroke="transparent" points="124.07,-1407.53 124.07,-1467.53 707.07,-1467.53 707.07,-1407.53 124.07,-1407.53"/>
<polygon fill="none" stroke="#29235c" points="124.07,-1407.53 124.07,-1467.53 707.07,-1467.53 707.07,-1407.53 124.07,-1407.53"/>
<text text-anchor="start" x="134.74" y="-1427.73" font-family="Helvetica,sans-Serif" font-size="32.00" fill="#29235c">player_development_cards &#160;&#160;&#160;</text>
<text text-anchor="start" x="553.96" y="-1428.73" font-family="Helvetica,sans-Serif" font-style="italic" font-size="32.00" fill="#29235c">INTEGER</text>
<polygon fill="none" stroke="#29235c" stroke-width="2" points="122.57,-1406.53 122.57,-1708.53 707.57,-1708.53 707.57,-1406.53 122.57,-1406.53"/>
</g>
<!-- DevelopmentCard&#45;&gt;Player -->
<!-- DevelopmentCard&#45;&gt;Player -->
<g id="edge4" class="edge">
<title>DevelopmentCard:e&#45;&gt;Player:w</title>
<path fill="none" stroke="#29235c" stroke-width="3" d="M708.07,-1557.53C873.49,-1557.53 823.96,-1801.22 980.56,-1811.22"/>
<polygon fill="#29235c" stroke="#29235c" stroke-width="3" points="980.57,-1814.72 990.67,-1811.53 980.79,-1807.72 980.57,-1814.72"/>
<text text-anchor="middle" x="996.89" y="-1821.13" font-family="Helvetica,sans-Serif" font-size="32.00" fill="#29235c">*</text>
<text text-anchor="middle" x="699.18" y="-1528.73" font-family="Helvetica,sans-Serif" font-size="32.00" fill="#29235c">1</text>
</g>
<!-- DiceRoll -->
<g id="DiceRoll" class="node">
<title>DiceRoll</title>
<ellipse fill="none" stroke="black" stroke-width="0" cx="415.07" cy="-3796.53" rx="294.31" ry="214.92"/>
<polygon fill="#1d71b8" stroke="transparent" points="209.07,-3886.53 209.07,-3946.53 621.07,-3946.53 621.07,-3886.53 209.07,-3886.53"/>
<polygon fill="none" stroke="#29235c" points="209.07,-3886.53 209.07,-3946.53 621.07,-3946.53 621.07,-3886.53 209.07,-3886.53"/>
<text text-anchor="start" x="293.28" y="-3907.73" font-family="Helvetica,sans-Serif" font-weight="bold" font-size="32.00" fill="#ffffff"> &#160;&#160;&#160;&#160;&#160;&#160;DiceRoll &#160;&#160;&#160;&#160;&#160;&#160;</text>
<polygon fill="#e7e2dd" stroke="transparent" points="209.07,-3826.53 209.07,-3886.53 621.07,-3886.53 621.07,-3826.53 209.07,-3826.53"/>
<polygon fill="none" stroke="#29235c" points="209.07,-3826.53 209.07,-3886.53 621.07,-3886.53 621.07,-3826.53 209.07,-3826.53"/>
<text text-anchor="start" x="220.07" y="-3847.73" font-family="Helvetica,sans-Serif" font-weight="bold" font-size="32.00" fill="#29235c">id</text>
<text text-anchor="start" x="244.96" y="-3847.73" font-family="Helvetica,sans-Serif" font-size="32.00" fill="#29235c"> &#160;&#160;&#160;</text>
<text text-anchor="start" x="467.85" y="-3847.73" font-family="Helvetica,sans-Serif" font-style="italic" font-size="32.00" fill="#29235c">INTEGER</text>
<polygon fill="#e7e2dd" stroke="transparent" points="209.07,-3766.53 209.07,-3826.53 621.07,-3826.53 621.07,-3766.53 209.07,-3766.53"/>
<polygon fill="none" stroke="#29235c" points="209.07,-3766.53 209.07,-3826.53 621.07,-3826.53 621.07,-3766.53 209.07,-3766.53"/>
<text text-anchor="start" x="220.07" y="-3786.73" font-family="Helvetica,sans-Serif" font-size="32.00" fill="#29235c">roll_number &#160;&#160;&#160;</text>
<text text-anchor="start" x="467.85" y="-3787.73" font-family="Helvetica,sans-Serif" font-style="italic" font-size="32.00" fill="#29235c">INTEGER</text>
<polygon fill="#e7e2dd" stroke="transparent" points="209.07,-3706.53 209.07,-3766.53 621.07,-3766.53 621.07,-3706.53 209.07,-3706.53"/>
<polygon fill="none" stroke="#29235c" points="209.07,-3706.53 209.07,-3766.53 621.07,-3766.53 621.07,-3706.53 209.07,-3706.53"/>
<text text-anchor="start" x="220.07" y="-3726.73" font-family="Helvetica,sans-Serif" font-size="32.00" fill="#29235c">date_time &#160;&#160;&#160;</text>
<text text-anchor="start" x="448.31" y="-3727.73" font-family="Helvetica,sans-Serif" font-style="italic" font-size="32.00" fill="#29235c">DATETIME</text>
<polygon fill="#e7e2dd" stroke="transparent" points="209.07,-3646.53 209.07,-3706.53 621.07,-3706.53 621.07,-3646.53 209.07,-3646.53"/>
<polygon fill="none" stroke="#29235c" points="209.07,-3646.53 209.07,-3706.53 621.07,-3706.53 621.07,-3646.53 209.07,-3646.53"/>
<text text-anchor="start" x="219.6" y="-3666.73" font-family="Helvetica,sans-Serif" font-size="32.00" fill="#29235c">total_dice_rolls &#160;&#160;&#160;</text>
<text text-anchor="start" x="467.96" y="-3667.73" font-family="Helvetica,sans-Serif" font-style="italic" font-size="32.00" fill="#29235c">INTEGER</text>
<polygon fill="none" stroke="#29235c" stroke-width="2" points="208.07,-3645.53 208.07,-3947.53 622.07,-3947.53 622.07,-3645.53 208.07,-3645.53"/>
</g>
<!-- Game -->
<g id="Game" class="node">
<title>Game</title>
<ellipse fill="none" stroke="black" stroke-width="0" cx="1137.67" cy="-3391.53" rx="271.56" ry="172.57"/>
<polygon fill="#1d71b8" stroke="transparent" points="947.67,-3451.53 947.67,-3511.53 1327.67,-3511.53 1327.67,-3451.53 947.67,-3451.53"/>
<polygon fill="none" stroke="#29235c" points="947.67,-3451.53 947.67,-3511.53 1327.67,-3511.53 1327.67,-3451.53 947.67,-3451.53"/>
<text text-anchor="start" x="1031.86" y="-3472.73" font-family="Helvetica,sans-Serif" font-weight="bold" font-size="32.00" fill="#ffffff"> &#160;&#160;&#160;&#160;&#160;&#160;Game &#160;&#160;&#160;&#160;&#160;&#160;</text>
<polygon fill="#e7e2dd" stroke="transparent" points="947.67,-3391.53 947.67,-3451.53 1327.67,-3451.53 1327.67,-3391.53 947.67,-3391.53"/>
<polygon fill="none" stroke="#29235c" points="947.67,-3391.53 947.67,-3451.53 1327.67,-3451.53 1327.67,-3391.53 947.67,-3391.53"/>
<text text-anchor="start" x="958.67" y="-3412.73" font-family="Helvetica,sans-Serif" font-weight="bold" font-size="32.00" fill="#29235c">id</text>
<text text-anchor="start" x="983.56" y="-3412.73" font-family="Helvetica,sans-Serif" font-size="32.00" fill="#29235c"> &#160;&#160;&#160;</text>
<text text-anchor="start" x="1174.45" y="-3412.73" font-family="Helvetica,sans-Serif" font-style="italic" font-size="32.00" fill="#29235c">INTEGER</text>
<polygon fill="#e7e2dd" stroke="transparent" points="947.67,-3331.53 947.67,-3391.53 1327.67,-3391.53 1327.67,-3331.53 947.67,-3331.53"/>
<polygon fill="none" stroke="#29235c" points="947.67,-3331.53 947.67,-3391.53 1327.67,-3391.53 1327.67,-3331.53 947.67,-3331.53"/>
<text text-anchor="start" x="958.67" y="-3351.73" font-family="Helvetica,sans-Serif" font-size="32.00" fill="#29235c">date_time &#160;&#160;&#160;</text>
<text text-anchor="start" x="1154.91" y="-3352.73" font-family="Helvetica,sans-Serif" font-style="italic" font-size="32.00" fill="#29235c">DATETIME</text>
<polygon fill="#e7e2dd" stroke="transparent" points="947.67,-3271.53 947.67,-3331.53 1327.67,-3331.53 1327.67,-3271.53 947.67,-3271.53"/>
<polygon fill="none" stroke="#29235c" points="947.67,-3271.53 947.67,-3331.53 1327.67,-3331.53 1327.67,-3271.53 947.67,-3271.53"/>
<text text-anchor="start" x="958.2" y="-3291.73" font-family="Helvetica,sans-Serif" font-size="32.00" fill="#29235c">total_players &#160;&#160;&#160;</text>
<text text-anchor="start" x="1174.56" y="-3292.73" font-family="Helvetica,sans-Serif" font-style="italic" font-size="32.00" fill="#29235c">INTEGER</text>
<polygon fill="none" stroke="#29235c" stroke-width="2" points="946.67,-3270.53 946.67,-3512.53 1328.67,-3512.53 1328.67,-3270.53 946.67,-3270.53"/>
</g>
<!-- GamePlayer -->
<g id="GamePlayer" class="node">
<title>GamePlayer</title>
<ellipse fill="none" stroke="black" stroke-width="0" cx="415.07" cy="-3391.53" rx="235.43" ry="172.57"/>
<polygon fill="#1d71b8" stroke="transparent" points="251.07,-3451.53 251.07,-3511.53 580.07,-3511.53 580.07,-3451.53 251.07,-3451.53"/>
<polygon fill="none" stroke="#29235c" points="251.07,-3451.53 251.07,-3511.53 580.07,-3511.53 580.07,-3451.53 251.07,-3451.53"/>
<text text-anchor="start" x="264.42" y="-3472.73" font-family="Helvetica,sans-Serif" font-weight="bold" font-size="32.00" fill="#ffffff"> &#160;&#160;&#160;&#160;&#160;&#160;GamePlayer &#160;&#160;&#160;&#160;&#160;&#160;</text>
<polygon fill="#e7e2dd" stroke="transparent" points="251.07,-3391.53 251.07,-3451.53 580.07,-3451.53 580.07,-3391.53 251.07,-3391.53"/>
<polygon fill="none" stroke="#29235c" points="251.07,-3391.53 251.07,-3451.53 580.07,-3451.53 580.07,-3391.53 251.07,-3391.53"/>
<text text-anchor="start" x="262.07" y="-3412.73" font-family="Helvetica,sans-Serif" font-weight="bold" font-size="32.00" fill="#29235c">id</text>
<text text-anchor="start" x="286.96" y="-3412.73" font-family="Helvetica,sans-Serif" font-size="32.00" fill="#29235c"> &#160;&#160;&#160;</text>
<text text-anchor="start" x="426.85" y="-3412.73" font-family="Helvetica,sans-Serif" font-style="italic" font-size="32.00" fill="#29235c">INTEGER</text>
<polygon fill="#e7e2dd" stroke="transparent" points="251.07,-3331.53 251.07,-3391.53 580.07,-3391.53 580.07,-3331.53 251.07,-3331.53"/>
<polygon fill="none" stroke="#29235c" points="251.07,-3331.53 251.07,-3391.53 580.07,-3391.53 580.07,-3331.53 251.07,-3331.53"/>
<text text-anchor="start" x="262.07" y="-3351.73" font-family="Helvetica,sans-Serif" font-size="32.00" fill="#29235c">game_id &#160;&#160;&#160;</text>
<text text-anchor="start" x="426.85" y="-3352.73" font-family="Helvetica,sans-Serif" font-style="italic" font-size="32.00" fill="#29235c">INTEGER</text>
<polygon fill="#e7e2dd" stroke="transparent" points="251.07,-3271.53 251.07,-3331.53 580.07,-3331.53 580.07,-3271.53 251.07,-3271.53"/>
<polygon fill="none" stroke="#29235c" points="251.07,-3271.53 251.07,-3331.53 580.07,-3331.53 580.07,-3271.53 251.07,-3271.53"/>
<text text-anchor="start" x="261.89" y="-3291.73" font-family="Helvetica,sans-Serif" font-size="32.00" fill="#29235c">player_id &#160;&#160;&#160;</text>
<text text-anchor="start" x="426.96" y="-3292.73" font-family="Helvetica,sans-Serif" font-style="italic" font-size="32.00" fill="#29235c">INTEGER</text>
<polygon fill="none" stroke="#29235c" stroke-width="2" points="249.57,-3270.53 249.57,-3512.53 580.57,-3512.53 580.57,-3270.53 249.57,-3270.53"/>
</g>
<!-- GamePlayer&#45;&gt;Player -->
<!-- GamePlayer&#45;&gt;Player -->
<g id="edge8" class="edge">
<title>GamePlayer:e&#45;&gt;Player:w</title>
<path fill="none" stroke="#29235c" stroke-width="3" d="M581.07,-3301.53C699.08,-3301.53 757.26,-3302.35 830.14,-3209.53 1021.09,-2966.35 685.65,-1837.3 980.38,-1811.97"/>
<polygon fill="#29235c" stroke="#29235c" stroke-width="3" points="980.83,-1815.45 990.67,-1811.53 980.53,-1808.46 980.83,-1815.45"/>
<text text-anchor="middle" x="984.45" y="-1782.73" font-family="Helvetica,sans-Serif" font-size="32.00" fill="#29235c">*</text>
<text text-anchor="middle" x="572.18" y="-3311.13" font-family="Helvetica,sans-Serif" font-size="32.00" fill="#29235c">1</text>
</g>
<!-- GamePlayer&#45;&gt;Game -->
<!-- GamePlayer&#45;&gt;Game -->
<g id="edge6" class="edge">
<title>GamePlayer:e&#45;&gt;Game:w</title>
<path fill="none" stroke="#29235c" stroke-width="3" d="M581.07,-3361.53C742.2,-3361.53 780.39,-3418.98 936.23,-3421.45"/>
<polygon fill="#29235c" stroke="#29235c" stroke-width="3" points="936.65,-3424.96 946.67,-3421.53 936.7,-3417.96 936.65,-3424.96"/>
<text text-anchor="middle" x="940.45" y="-3431.13" font-family="Helvetica,sans-Serif" font-size="32.00" fill="#29235c">*</text>
<text text-anchor="middle" x="572.18" y="-3371.13" font-family="Helvetica,sans-Serif" font-size="32.00" fill="#29235c">1</text>
</g>
<!-- PlayerResource -->
<g id="PlayerResource" class="node">
<title>PlayerResource</title>
<ellipse fill="none" stroke="black" stroke-width="0" cx="415.07" cy="-577.53" rx="267.07" ry="214.92"/>
<polygon fill="#1d71b8" stroke="transparent" points="228.07,-667.53 228.07,-727.53 602.07,-727.53 602.07,-667.53 228.07,-667.53"/>
<polygon fill="none" stroke="#29235c" points="228.07,-667.53 228.07,-727.53 602.07,-727.53 602.07,-667.53 228.07,-667.53"/>
<text text-anchor="start" x="239.03" y="-688.73" font-family="Helvetica,sans-Serif" font-weight="bold" font-size="32.00" fill="#ffffff"> &#160;&#160;&#160;&#160;&#160;&#160;PlayerResource &#160;&#160;&#160;&#160;&#160;&#160;</text>
<polygon fill="#e7e2dd" stroke="transparent" points="228.07,-607.53 228.07,-667.53 602.07,-667.53 602.07,-607.53 228.07,-607.53"/>
<polygon fill="none" stroke="#29235c" points="228.07,-607.53 228.07,-667.53 602.07,-667.53 602.07,-607.53 228.07,-607.53"/>
<text text-anchor="start" x="239.07" y="-628.73" font-family="Helvetica,sans-Serif" font-weight="bold" font-size="32.00" fill="#29235c">id</text>
<text text-anchor="start" x="263.96" y="-628.73" font-family="Helvetica,sans-Serif" font-size="32.00" fill="#29235c"> &#160;&#160;&#160;</text>
<text text-anchor="start" x="448.85" y="-628.73" font-family="Helvetica,sans-Serif" font-style="italic" font-size="32.00" fill="#29235c">INTEGER</text>
<polygon fill="#e7e2dd" stroke="transparent" points="228.07,-547.53 228.07,-607.53 602.07,-607.53 602.07,-547.53 228.07,-547.53"/>
<polygon fill="none" stroke="#29235c" points="228.07,-547.53 228.07,-607.53 602.07,-607.53 602.07,-547.53 228.07,-547.53"/>
<text text-anchor="start" x="239.07" y="-567.73" font-family="Helvetica,sans-Serif" font-size="32.00" fill="#29235c">player_id &#160;&#160;&#160;</text>
<text text-anchor="start" x="448.85" y="-568.73" font-family="Helvetica,sans-Serif" font-style="italic" font-size="32.00" fill="#29235c">INTEGER</text>
<polygon fill="#e7e2dd" stroke="transparent" points="228.07,-487.53 228.07,-547.53 602.07,-547.53 602.07,-487.53 228.07,-487.53"/>
<polygon fill="none" stroke="#29235c" points="228.07,-487.53 228.07,-547.53 602.07,-547.53 602.07,-487.53 228.07,-487.53"/>
<text text-anchor="start" x="239.07" y="-507.73" font-family="Helvetica,sans-Serif" font-size="32.00" fill="#29235c">resource_id &#160;&#160;&#160;</text>
<text text-anchor="start" x="448.85" y="-508.73" font-family="Helvetica,sans-Serif" font-style="italic" font-size="32.00" fill="#29235c">INTEGER</text>
<polygon fill="#e7e2dd" stroke="transparent" points="228.07,-427.53 228.07,-487.53 602.07,-487.53 602.07,-427.53 228.07,-427.53"/>
<polygon fill="none" stroke="#29235c" points="228.07,-427.53 228.07,-487.53 602.07,-487.53 602.07,-427.53 228.07,-427.53"/>
<text text-anchor="start" x="239.07" y="-447.73" font-family="Helvetica,sans-Serif" font-size="32.00" fill="#29235c">amount &#160;&#160;&#160;</text>
<text text-anchor="start" x="448.85" y="-448.73" font-family="Helvetica,sans-Serif" font-style="italic" font-size="32.00" fill="#29235c">INTEGER</text>
<polygon fill="none" stroke="#29235c" stroke-width="2" points="227.07,-426.53 227.07,-728.53 603.07,-728.53 603.07,-426.53 227.07,-426.53"/>
</g>
<!-- PlayerResource&#45;&gt;Player -->
<!-- PlayerResource&#45;&gt;Player -->
<g id="edge10" class="edge">
<title>PlayerResource:e&#45;&gt;Player:w</title>
<path fill="none" stroke="#29235c" stroke-width="3" d="M603.07,-577.53C744.83,-577.53 765.32,-675.46 830.14,-801.53 932.49,-1000.59 768.51,-1787.22 980.62,-1810.98"/>
<polygon fill="#29235c" stroke="#29235c" stroke-width="3" points="980.5,-1814.48 990.67,-1811.53 980.88,-1807.49 980.5,-1814.48"/>
<text text-anchor="middle" x="996.89" y="-1782.73" font-family="Helvetica,sans-Serif" font-size="32.00" fill="#29235c">*</text>
<text text-anchor="middle" x="594.18" y="-548.73" font-family="Helvetica,sans-Serif" font-size="32.00" fill="#29235c">1</text>
</g>
<!-- Resource -->
<g id="Resource" class="node">
<title>Resource</title>
<ellipse fill="none" stroke="black" stroke-width="0" cx="1137.67" cy="-637.53" rx="210.02" ry="130.22"/>
<polygon fill="#1d71b8" stroke="transparent" points="991.67,-667.53 991.67,-727.53 1284.67,-727.53 1284.67,-667.53 991.67,-667.53"/>
<polygon fill="none" stroke="#29235c" points="991.67,-667.53 991.67,-727.53 1284.67,-727.53 1284.67,-667.53 991.67,-667.53"/>
<text text-anchor="start" x="1007.47" y="-688.73" font-family="Helvetica,sans-Serif" font-weight="bold" font-size="32.00" fill="#ffffff"> &#160;&#160;&#160;&#160;&#160;&#160;Resource &#160;&#160;&#160;&#160;&#160;&#160;</text>
<polygon fill="#e7e2dd" stroke="transparent" points="991.67,-607.53 991.67,-667.53 1284.67,-667.53 1284.67,-607.53 991.67,-607.53"/>
<polygon fill="none" stroke="#29235c" points="991.67,-607.53 991.67,-667.53 1284.67,-667.53 1284.67,-607.53 991.67,-607.53"/>
<text text-anchor="start" x="1002.67" y="-628.73" font-family="Helvetica,sans-Serif" font-weight="bold" font-size="32.00" fill="#29235c">id</text>
<text text-anchor="start" x="1027.56" y="-628.73" font-family="Helvetica,sans-Serif" font-size="32.00" fill="#29235c"> &#160;&#160;&#160;</text>
<text text-anchor="start" x="1131.45" y="-628.73" font-family="Helvetica,sans-Serif" font-style="italic" font-size="32.00" fill="#29235c">INTEGER</text>
<polygon fill="#e7e2dd" stroke="transparent" points="991.67,-547.53 991.67,-607.53 1284.67,-607.53 1284.67,-547.53 991.67,-547.53"/>
<polygon fill="none" stroke="#29235c" points="991.67,-547.53 991.67,-607.53 1284.67,-607.53 1284.67,-547.53 991.67,-547.53"/>
<text text-anchor="start" x="1002.38" y="-567.73" font-family="Helvetica,sans-Serif" font-size="32.00" fill="#29235c">name &#160;&#160;&#160;</text>
<text text-anchor="start" x="1117.46" y="-568.73" font-family="Helvetica,sans-Serif" font-style="italic" font-size="32.00" fill="#29235c">VARCHAR</text>
<polygon fill="none" stroke="#29235c" stroke-width="2" points="990.17,-546.53 990.17,-728.53 1285.17,-728.53 1285.17,-546.53 990.17,-546.53"/>
</g>
<!-- PlayerResource&#45;&gt;Resource -->
<!-- PlayerResource&#45;&gt;Resource -->
<g id="edge12" class="edge">
<title>PlayerResource:e&#45;&gt;Resource:w</title>
<path fill="none" stroke="#29235c" stroke-width="3" d="M603.07,-517.53C779.97,-517.53 809.26,-633.01 980.53,-637.41"/>
<polygon fill="#29235c" stroke="#29235c" stroke-width="3" points="980.63,-640.91 990.67,-637.53 980.72,-633.91 980.63,-640.91"/>
<text text-anchor="middle" x="984.45" y="-608.73" font-family="Helvetica,sans-Serif" font-size="32.00" fill="#29235c">*</text>
<text text-anchor="middle" x="594.18" y="-488.73" font-family="Helvetica,sans-Serif" font-size="32.00" fill="#29235c">1</text>
</g>
<!-- Road -->
<g id="Road" class="node">
<title>Road</title>
<ellipse fill="none" stroke="black" stroke-width="0" cx="415.07" cy="-2943.53" rx="287.59" ry="257.27"/>
<polygon fill="#1d71b8" stroke="transparent" points="214.07,-3063.53 214.07,-3123.53 617.07,-3123.53 617.07,-3063.53 214.07,-3063.53"/>
<polygon fill="none" stroke="#29235c" points="214.07,-3063.53 214.07,-3123.53 617.07,-3123.53 617.07,-3063.53 214.07,-3063.53"/>
<text text-anchor="start" x="315.09" y="-3084.73" font-family="Helvetica,sans-Serif" font-weight="bold" font-size="32.00" fill="#ffffff"> &#160;&#160;&#160;&#160;&#160;&#160;Road &#160;&#160;&#160;&#160;&#160;&#160;</text>
<polygon fill="#e7e2dd" stroke="transparent" points="214.07,-3003.53 214.07,-3063.53 617.07,-3063.53 617.07,-3003.53 214.07,-3003.53"/>
<polygon fill="none" stroke="#29235c" points="214.07,-3003.53 214.07,-3063.53 617.07,-3063.53 617.07,-3003.53 214.07,-3003.53"/>
<text text-anchor="start" x="225.07" y="-3024.73" font-family="Helvetica,sans-Serif" font-weight="bold" font-size="32.00" fill="#29235c">id</text>
<text text-anchor="start" x="249.96" y="-3024.73" font-family="Helvetica,sans-Serif" font-size="32.00" fill="#29235c"> &#160;&#160;&#160;</text>
<text text-anchor="start" x="463.85" y="-3024.73" font-family="Helvetica,sans-Serif" font-style="italic" font-size="32.00" fill="#29235c">INTEGER</text>
<polygon fill="#e7e2dd" stroke="transparent" points="214.07,-2943.53 214.07,-3003.53 617.07,-3003.53 617.07,-2943.53 214.07,-2943.53"/>
<polygon fill="none" stroke="#29235c" points="214.07,-2943.53 214.07,-3003.53 617.07,-3003.53 617.07,-2943.53 214.07,-2943.53"/>
<text text-anchor="start" x="225.07" y="-2963.73" font-family="Helvetica,sans-Serif" font-size="32.00" fill="#29235c">player_id &#160;&#160;&#160;</text>
<text text-anchor="start" x="463.85" y="-2964.73" font-family="Helvetica,sans-Serif" font-style="italic" font-size="32.00" fill="#29235c">INTEGER</text>
<polygon fill="#e7e2dd" stroke="transparent" points="214.07,-2883.53 214.07,-2943.53 617.07,-2943.53 617.07,-2883.53 214.07,-2883.53"/>
<polygon fill="none" stroke="#29235c" points="214.07,-2883.53 214.07,-2943.53 617.07,-2943.53 617.07,-2883.53 214.07,-2883.53"/>
<text text-anchor="start" x="224.65" y="-2903.73" font-family="Helvetica,sans-Serif" font-size="32.00" fill="#29235c">start_location &#160;&#160;&#160;</text>
<text text-anchor="start" x="449.86" y="-2904.73" font-family="Helvetica,sans-Serif" font-style="italic" font-size="32.00" fill="#29235c">VARCHAR</text>
<polygon fill="#e7e2dd" stroke="transparent" points="214.07,-2823.53 214.07,-2883.53 617.07,-2883.53 617.07,-2823.53 214.07,-2823.53"/>
<polygon fill="none" stroke="#29235c" points="214.07,-2823.53 214.07,-2883.53 617.07,-2883.53 617.07,-2823.53 214.07,-2823.53"/>
<text text-anchor="start" x="225.07" y="-2843.73" font-family="Helvetica,sans-Serif" font-size="32.00" fill="#29235c">end_location &#160;&#160;&#160;</text>
<text text-anchor="start" x="449.65" y="-2844.73" font-family="Helvetica,sans-Serif" font-style="italic" font-size="32.00" fill="#29235c">VARCHAR</text>
<polygon fill="#e7e2dd" stroke="transparent" points="214.07,-2763.53 214.07,-2823.53 617.07,-2823.53 617.07,-2763.53 214.07,-2763.53"/>
<polygon fill="none" stroke="#29235c" points="214.07,-2763.53 214.07,-2823.53 617.07,-2823.53 617.07,-2763.53 214.07,-2763.53"/>
<text text-anchor="start" x="225.07" y="-2783.73" font-family="Helvetica,sans-Serif" font-size="32.00" fill="#29235c">player_roads &#160;&#160;&#160;</text>
<text text-anchor="start" x="463.85" y="-2784.73" font-family="Helvetica,sans-Serif" font-style="italic" font-size="32.00" fill="#29235c">INTEGER</text>
<polygon fill="none" stroke="#29235c" stroke-width="2" points="212.57,-2762.53 212.57,-3124.53 617.57,-3124.53 617.57,-2762.53 212.57,-2762.53"/>
</g>
<!-- Road&#45;&gt;Player -->
<!-- Road&#45;&gt;Player -->
<g id="edge14" class="edge">
<title>Road:e&#45;&gt;Player:w</title>
<path fill="none" stroke="#29235c" stroke-width="3" d="M618.07,-2973.53C779.91,-2973.53 766.75,-2826.44 830.14,-2677.53 905.46,-2500.62 798.82,-1835.49 980.63,-1812.16"/>
<polygon fill="#29235c" stroke="#29235c" stroke-width="3" points="980.91,-1815.65 990.67,-1811.53 980.47,-1808.67 980.91,-1815.65"/>
<text text-anchor="middle" x="984.45" y="-1821.13" font-family="Helvetica,sans-Serif" font-size="32.00" fill="#29235c">*</text>
<text text-anchor="middle" x="609.18" y="-2983.13" font-family="Helvetica,sans-Serif" font-size="32.00" fill="#29235c">1</text>
</g>
<!-- Settlement -->
<g id="Settlement" class="node">
<title>Settlement</title>
<ellipse fill="none" stroke="black" stroke-width="0" cx="415.07" cy="-2453.53" rx="333.51" ry="214.92"/>
<polygon fill="#1d71b8" stroke="transparent" points="181.07,-2543.53 181.07,-2603.53 649.07,-2603.53 649.07,-2543.53 181.07,-2543.53"/>
<polygon fill="none" stroke="#29235c" points="181.07,-2543.53 181.07,-2603.53 649.07,-2603.53 649.07,-2543.53 181.07,-2543.53"/>
<text text-anchor="start" x="276.36" y="-2564.73" font-family="Helvetica,sans-Serif" font-weight="bold" font-size="32.00" fill="#ffffff"> &#160;&#160;&#160;&#160;&#160;&#160;Settlement &#160;&#160;&#160;&#160;&#160;&#160;</text>
<polygon fill="#e7e2dd" stroke="transparent" points="181.07,-2483.53 181.07,-2543.53 649.07,-2543.53 649.07,-2483.53 181.07,-2483.53"/>
<polygon fill="none" stroke="#29235c" points="181.07,-2483.53 181.07,-2543.53 649.07,-2543.53 649.07,-2483.53 181.07,-2483.53"/>
<text text-anchor="start" x="192.07" y="-2504.73" font-family="Helvetica,sans-Serif" font-weight="bold" font-size="32.00" fill="#29235c">id</text>
<text text-anchor="start" x="216.96" y="-2504.73" font-family="Helvetica,sans-Serif" font-size="32.00" fill="#29235c"> &#160;&#160;&#160;</text>
<text text-anchor="start" x="495.85" y="-2504.73" font-family="Helvetica,sans-Serif" font-style="italic" font-size="32.00" fill="#29235c">INTEGER</text>
<polygon fill="#e7e2dd" stroke="transparent" points="181.07,-2423.53 181.07,-2483.53 649.07,-2483.53 649.07,-2423.53 181.07,-2423.53"/>
<polygon fill="none" stroke="#29235c" points="181.07,-2423.53 181.07,-2483.53 649.07,-2483.53 649.07,-2423.53 181.07,-2423.53"/>
<text text-anchor="start" x="192.07" y="-2443.73" font-family="Helvetica,sans-Serif" font-size="32.00" fill="#29235c">player_id &#160;&#160;&#160;</text>
<text text-anchor="start" x="495.85" y="-2444.73" font-family="Helvetica,sans-Serif" font-style="italic" font-size="32.00" fill="#29235c">INTEGER</text>
<polygon fill="#e7e2dd" stroke="transparent" points="181.07,-2363.53 181.07,-2423.53 649.07,-2423.53 649.07,-2363.53 181.07,-2363.53"/>
<polygon fill="none" stroke="#29235c" points="181.07,-2363.53 181.07,-2423.53 649.07,-2423.53 649.07,-2363.53 181.07,-2363.53"/>
<text text-anchor="start" x="192.07" y="-2383.73" font-family="Helvetica,sans-Serif" font-size="32.00" fill="#29235c">location &#160;&#160;&#160;</text>
<text text-anchor="start" x="481.65" y="-2384.73" font-family="Helvetica,sans-Serif" font-style="italic" font-size="32.00" fill="#29235c">VARCHAR</text>
<polygon fill="#e7e2dd" stroke="transparent" points="181.07,-2303.53 181.07,-2363.53 649.07,-2363.53 649.07,-2303.53 181.07,-2303.53"/>
<polygon fill="none" stroke="#29235c" points="181.07,-2303.53 181.07,-2363.53 649.07,-2363.53 649.07,-2303.53 181.07,-2303.53"/>
<text text-anchor="start" x="192.04" y="-2323.73" font-family="Helvetica,sans-Serif" font-size="32.00" fill="#29235c">player_settlements &#160;&#160;&#160;</text>
<text text-anchor="start" x="495.96" y="-2324.73" font-family="Helvetica,sans-Serif" font-style="italic" font-size="32.00" fill="#29235c">INTEGER</text>
<polygon fill="none" stroke="#29235c" stroke-width="2" points="180.07,-2302.53 180.07,-2604.53 650.07,-2604.53 650.07,-2302.53 180.07,-2302.53"/>
</g>
<!-- Settlement&#45;&gt;Player -->
<!-- Settlement&#45;&gt;Player -->
<g id="edge16" class="edge">
<title>Settlement:e&#45;&gt;Player:w</title>
<path fill="none" stroke="#29235c" stroke-width="3" d="M650.07,-2453.53C777.81,-2453.53 766.46,-2340.27 830.14,-2229.53 927.61,-2060.05 796.43,-1820.14 980.49,-1811.76"/>
<polygon fill="#29235c" stroke="#29235c" stroke-width="3" points="980.75,-1815.25 990.67,-1811.53 980.6,-1808.26 980.75,-1815.25"/>
<text text-anchor="middle" x="996.89" y="-1821.13" font-family="Helvetica,sans-Serif" font-size="32.00" fill="#29235c">*</text>
<text text-anchor="middle" x="641.18" y="-2463.13" font-family="Helvetica,sans-Serif" font-size="32.00" fill="#29235c">1</text>
</g>
<!-- Tile -->
<g id="Tile" class="node">
<title>Tile</title>
<ellipse fill="none" stroke="black" stroke-width="0" cx="415.07" cy="-172.53" rx="261.76" ry="172.57"/>
<polygon fill="#1d71b8" stroke="transparent" points="232.07,-232.53 232.07,-292.53 598.07,-292.53 598.07,-232.53 232.07,-232.53"/>
<polygon fill="none" stroke="#29235c" points="232.07,-232.53 232.07,-292.53 598.07,-292.53 598.07,-232.53 232.07,-232.53"/>
<text text-anchor="start" x="327.05" y="-253.73" font-family="Helvetica,sans-Serif" font-weight="bold" font-size="32.00" fill="#ffffff"> &#160;&#160;&#160;&#160;&#160;&#160;Tile &#160;&#160;&#160;&#160;&#160;&#160;</text>
<polygon fill="#e7e2dd" stroke="transparent" points="232.07,-172.53 232.07,-232.53 598.07,-232.53 598.07,-172.53 232.07,-172.53"/>
<polygon fill="none" stroke="#29235c" points="232.07,-172.53 232.07,-232.53 598.07,-232.53 598.07,-172.53 232.07,-172.53"/>
<text text-anchor="start" x="243.07" y="-193.73" font-family="Helvetica,sans-Serif" font-weight="bold" font-size="32.00" fill="#29235c">id</text>
<text text-anchor="start" x="267.96" y="-193.73" font-family="Helvetica,sans-Serif" font-size="32.00" fill="#29235c"> &#160;&#160;&#160;</text>
<text text-anchor="start" x="444.85" y="-193.73" font-family="Helvetica,sans-Serif" font-style="italic" font-size="32.00" fill="#29235c">INTEGER</text>
<polygon fill="#e7e2dd" stroke="transparent" points="232.07,-112.53 232.07,-172.53 598.07,-172.53 598.07,-112.53 232.07,-112.53"/>
<polygon fill="none" stroke="#29235c" points="232.07,-112.53 232.07,-172.53 598.07,-172.53 598.07,-112.53 232.07,-112.53"/>
<text text-anchor="start" x="242.72" y="-132.73" font-family="Helvetica,sans-Serif" font-size="32.00" fill="#29235c">resource_id &#160;&#160;&#160;</text>
<text text-anchor="start" x="444.96" y="-133.73" font-family="Helvetica,sans-Serif" font-style="italic" font-size="32.00" fill="#29235c">INTEGER</text>
<polygon fill="#e7e2dd" stroke="transparent" points="232.07,-52.53 232.07,-112.53 598.07,-112.53 598.07,-52.53 232.07,-52.53"/>
<polygon fill="none" stroke="#29235c" points="232.07,-52.53 232.07,-112.53 598.07,-112.53 598.07,-52.53 232.07,-52.53"/>
<text text-anchor="start" x="243.07" y="-72.73" font-family="Helvetica,sans-Serif" font-size="32.00" fill="#29235c">number &#160;&#160;&#160;</text>
<text text-anchor="start" x="444.85" y="-73.73" font-family="Helvetica,sans-Serif" font-style="italic" font-size="32.00" fill="#29235c">INTEGER</text>
<polygon fill="none" stroke="#29235c" stroke-width="2" points="231.07,-51.53 231.07,-293.53 599.07,-293.53 599.07,-51.53 231.07,-51.53"/>
</g>
<!-- Tile&#45;&gt;Resource -->
<!-- Tile&#45;&gt;Resource -->
<g id="edge18" class="edge">
<title>Tile:e&#45;&gt;Resource:w</title>
<path fill="none" stroke="#29235c" stroke-width="3" d="M599.07,-142.53C738.14,-142.53 743.5,-244.75 830.14,-353.53 918.27,-464.18 849.24,-629.24 980.44,-637.23"/>
<polygon fill="#29235c" stroke="#29235c" stroke-width="3" points="980.57,-640.74 990.67,-637.53 980.78,-633.74 980.57,-640.74"/>
<text text-anchor="middle" x="996.89" y="-608.73" font-family="Helvetica,sans-Serif" font-size="32.00" fill="#29235c">*</text>
<text text-anchor="middle" x="590.18" y="-113.73" font-family="Helvetica,sans-Serif" font-size="32.00" fill="#29235c">1</text>
</g>
<!-- Trade -->
<g id="Trade" class="node">
<title>Trade</title>
<ellipse fill="none" stroke="black" stroke-width="0" cx="415.07" cy="-1067.53" rx="293.4" ry="257.27"/>
<polygon fill="#1d71b8" stroke="transparent" points="210.07,-1187.53 210.07,-1247.53 621.07,-1247.53 621.07,-1187.53 210.07,-1187.53"/>
<polygon fill="none" stroke="#29235c" points="210.07,-1187.53 210.07,-1247.53 621.07,-1247.53 621.07,-1187.53 210.07,-1187.53"/>
<text text-anchor="start" x="311.54" y="-1208.73" font-family="Helvetica,sans-Serif" font-weight="bold" font-size="32.00" fill="#ffffff"> &#160;&#160;&#160;&#160;&#160;&#160;Trade &#160;&#160;&#160;&#160;&#160;&#160;</text>
<polygon fill="#e7e2dd" stroke="transparent" points="210.07,-1127.53 210.07,-1187.53 621.07,-1187.53 621.07,-1127.53 210.07,-1127.53"/>
<polygon fill="none" stroke="#29235c" points="210.07,-1127.53 210.07,-1187.53 621.07,-1187.53 621.07,-1127.53 210.07,-1127.53"/>
<text text-anchor="start" x="221.07" y="-1148.73" font-family="Helvetica,sans-Serif" font-weight="bold" font-size="32.00" fill="#29235c">id</text>
<text text-anchor="start" x="245.96" y="-1148.73" font-family="Helvetica,sans-Serif" font-size="32.00" fill="#29235c"> &#160;&#160;&#160;</text>
<text text-anchor="start" x="467.85" y="-1148.73" font-family="Helvetica,sans-Serif" font-style="italic" font-size="32.00" fill="#29235c">INTEGER</text>
<polygon fill="#e7e2dd" stroke="transparent" points="210.07,-1067.53 210.07,-1127.53 621.07,-1127.53 621.07,-1067.53 210.07,-1067.53"/>
<polygon fill="none" stroke="#29235c" points="210.07,-1067.53 210.07,-1127.53 621.07,-1127.53 621.07,-1067.53 210.07,-1067.53"/>
<text text-anchor="start" x="221" y="-1087.73" font-family="Helvetica,sans-Serif" font-size="32.00" fill="#29235c">from_player_id &#160;&#160;&#160;</text>
<text text-anchor="start" x="467.96" y="-1088.73" font-family="Helvetica,sans-Serif" font-style="italic" font-size="32.00" fill="#29235c">INTEGER</text>
<polygon fill="#e7e2dd" stroke="transparent" points="210.07,-1007.53 210.07,-1067.53 621.07,-1067.53 621.07,-1007.53 210.07,-1007.53"/>
<polygon fill="none" stroke="#29235c" points="210.07,-1007.53 210.07,-1067.53 621.07,-1067.53 621.07,-1007.53 210.07,-1007.53"/>
<text text-anchor="start" x="221.07" y="-1027.73" font-family="Helvetica,sans-Serif" font-size="32.00" fill="#29235c">to_player_id &#160;&#160;&#160;</text>
<text text-anchor="start" x="467.85" y="-1028.73" font-family="Helvetica,sans-Serif" font-style="italic" font-size="32.00" fill="#29235c">INTEGER</text>
<polygon fill="#e7e2dd" stroke="transparent" points="210.07,-947.53 210.07,-1007.53 621.07,-1007.53 621.07,-947.53 210.07,-947.53"/>
<polygon fill="none" stroke="#29235c" points="210.07,-947.53 210.07,-1007.53 621.07,-1007.53 621.07,-947.53 210.07,-947.53"/>
<text text-anchor="start" x="221.07" y="-967.73" font-family="Helvetica,sans-Serif" font-size="32.00" fill="#29235c">resource_id &#160;&#160;&#160;</text>
<text text-anchor="start" x="467.85" y="-968.73" font-family="Helvetica,sans-Serif" font-style="italic" font-size="32.00" fill="#29235c">INTEGER</text>
<polygon fill="#e7e2dd" stroke="transparent" points="210.07,-887.53 210.07,-947.53 621.07,-947.53 621.07,-887.53 210.07,-887.53"/>
<polygon fill="none" stroke="#29235c" points="210.07,-887.53 210.07,-947.53 621.07,-947.53 621.07,-887.53 210.07,-887.53"/>
<text text-anchor="start" x="221.07" y="-907.73" font-family="Helvetica,sans-Serif" font-size="32.00" fill="#29235c">amount &#160;&#160;&#160;</text>
<text text-anchor="start" x="467.85" y="-908.73" font-family="Helvetica,sans-Serif" font-style="italic" font-size="32.00" fill="#29235c">INTEGER</text>
<polygon fill="none" stroke="#29235c" stroke-width="2" points="208.57,-886.53 208.57,-1248.53 621.57,-1248.53 621.57,-886.53 208.57,-886.53"/>
</g>
<!-- Trade&#45;&gt;Player -->
<!-- Trade&#45;&gt;Player -->
<g id="edge20" class="edge">
<title>Trade:e&#45;&gt;Player:w</title>
<path fill="none" stroke="#29235c" stroke-width="3" d="M622.07,-1097.53C761.91,-1097.53 760.26,-1212.41 830.14,-1333.53 940.39,-1524.62 771.98,-1802.68 980.46,-1811.33"/>
<polygon fill="#29235c" stroke="#29235c" stroke-width="3" points="980.6,-1814.83 990.67,-1811.53 980.75,-1807.83 980.6,-1814.83"/>
<text text-anchor="middle" x="984.45" y="-1782.73" font-family="Helvetica,sans-Serif" font-size="32.00" fill="#29235c">*</text>
<text text-anchor="middle" x="613.18" y="-1068.73" font-family="Helvetica,sans-Serif" font-size="32.00" fill="#29235c">1</text>
</g>
<!-- Trade&#45;&gt;Player -->
<!-- Trade&#45;&gt;Player -->
<g id="edge24" class="edge">
<title>Trade:e&#45;&gt;Player:w</title>
<path fill="none" stroke="#29235c" stroke-width="3" d="M622.07,-1037.53C782.88,-1037.53 757.55,-1190.04 830.14,-1333.53 929.73,-1530.38 771.65,-1802.86 980.45,-1811.33"/>
<polygon fill="#29235c" stroke="#29235c" stroke-width="3" points="980.61,-1814.84 990.67,-1811.53 980.74,-1807.84 980.61,-1814.84"/>
<text text-anchor="middle" x="996.89" y="-1782.73" font-family="Helvetica,sans-Serif" font-size="32.00" fill="#29235c">*</text>
<text text-anchor="middle" x="613.18" y="-1008.73" font-family="Helvetica,sans-Serif" font-size="32.00" fill="#29235c">1</text>
</g>
<!-- Trade&#45;&gt;Resource -->
<!-- Trade&#45;&gt;Resource -->
<g id="edge22" class="edge">
<title>Trade:e&#45;&gt;Resource:w</title>
<path fill="none" stroke="#29235c" stroke-width="3" d="M622.07,-977.53C743.19,-977.53 741.44,-884.01 830.14,-801.53 902.28,-734.45 889.68,-643.97 980.62,-637.86"/>
<polygon fill="#29235c" stroke="#29235c" stroke-width="3" points="980.79,-641.36 990.67,-637.53 980.56,-634.36 980.79,-641.36"/>
<text text-anchor="middle" x="984.45" y="-647.13" font-family="Helvetica,sans-Serif" font-size="32.00" fill="#29235c">*</text>
<text text-anchor="middle" x="613.18" y="-948.73" font-family="Helvetica,sans-Serif" font-size="32.00" fill="#29235c">1</text>
</g>
</g>
</svg>
